# xmcd
#
# Track frame offsets:
#	150
#	16952
#	32950
#	52468
#	67607
#	79334
#	99643
#	116782
#	132518
#	148134
#	163784
#	180760
#	196723
#	209179
#	221139
#	234888
#	251033
#	264837
#	277730
#
# Disc length: 3871 seconds
#
# Revision: 1
# Processed by: cddbd v1.5.2PL0 Copyright (c) Steve Scherf et al.
# Submitted via: audiograbber 1.83.01
#
DISCID=1a0f1d13
DTITLE=Various Artist - Hott Country 183
DYEAR=2011
DGENRE=Country
TTITLE0=Luke Bryan - Country Girl ( Shake It For Me )
TTITLE1=Deric Ruttan - Sunshine ( Hey Little Girl )
TTITLE2=Lady Gaga - Born This Way ( Country Remix )
TTITLE3=Zac Brown Band Feat Jimmy Buffett - Knee Deep
TTITLE4=Carrie Underwood - Songs Like This
TTITLE5=Sugarland - Tonight
TTITLE6=Jason Aldean - Dirt Road Anthem
TTITLE7=Reba McEntire - When Love Gets A Hold Of You
TTITLE8=Trace Adkins - Just Fishin'
TTITLE9=Billy Currington - Love Done Gone
TTITLE10=Terri Clark - Northern Girl
TTITLE11=Kip Moore - Mary Was The Marrying Kind
TTITLE12=Jake Owen - Barefoot Blue Jean Night
TTITLE13=Bradley Gaskin - Mr Bartender
TTITLE14=Thgompson Square - Are You Gonna Kiss Me Or Not
TTITLE15=Gloriana - Wanna Take You Home
TTITLE16=Ryan Laird - I'm Your Man
TTITLE17=Tara Oram - 1929
TTITLE18=Kenny Rogers - Ruby Don't Take Your Love To Town ( 1969 )
EXTD=May 2011
EXTT0=
EXTT1=
EXTT2=
EXTT3=
EXTT4=
EXTT5=
EXTT6=
EXTT7=
EXTT8=
EXTT9=
EXTT10=
EXTT11=
EXTT12=
EXTT13=
EXTT14=
EXTT15=
EXTT16=
EXTT17=
EXTT18=
PLAYORDER=
